<svg width="16" height="16" viewBox="0 0 16 16" fill="none" xmlns="http://www.w3.org/2000/svg">
<path d="M13.3974 2.73596C12.171 1.49735 10.5424 0.737759 8.80533 0.594186C7.06824 0.450613 5.33702 0.932513 3.92394 1.95296C2.51086 2.97341 1.50895 4.46523 1.09893 6.15934C0.688904 7.85344 0.897762 9.6383 1.68783 11.192L0.91228 14.9572C0.904233 14.9947 0.904005 15.0334 0.91161 15.071C0.919216 15.1085 0.934492 15.1441 0.956482 15.1755C0.988696 15.2232 1.03468 15.2599 1.08829 15.2807C1.1419 15.3015 1.20059 15.3055 1.25652 15.2921L4.94674 14.4174C6.49604 15.1875 8.26831 15.3829 9.94818 14.9689C11.628 14.5549 13.1066 13.5584 14.1206 12.1566C15.1347 10.7548 15.6186 9.03874 15.4862 7.31368C15.3537 5.58863 14.6136 3.96651 13.3974 2.73596ZM12.2468 11.9193C11.3983 12.7654 10.3056 13.324 9.12286 13.5162C7.94008 13.7085 6.72679 13.5247 5.65397 12.9909L5.13962 12.7364L2.87727 13.2722L2.88397 13.244L3.35278 10.9669L3.10096 10.47C2.5528 9.39344 2.35943 8.17101 2.54855 6.97782C2.73767 5.78463 3.29958 4.68191 4.15378 3.82762C5.22709 2.75463 6.68263 2.15186 8.20029 2.15186C9.71796 2.15186 11.1735 2.75463 12.2468 3.82762C12.2559 3.8381 12.2658 3.84794 12.2763 3.85708C13.3363 4.93284 13.928 6.38402 13.9225 7.89427C13.917 9.40451 13.3147 10.8513 12.2468 11.9193Z" fill="#29A71A"/>
<path d="M12.0459 10.2493C11.7686 10.686 11.3306 11.2204 10.7801 11.353C9.8157 11.5861 8.33559 11.3611 6.49383 9.64387L6.47106 9.62378C4.85165 8.12224 4.43106 6.87252 4.53286 5.88132C4.58912 5.31875 5.05793 4.80975 5.45307 4.47757C5.51554 4.42425 5.58962 4.38629 5.66939 4.36672C5.74915 4.34715 5.83239 4.34652 5.91244 4.36487C5.9925 4.38323 6.06714 4.42006 6.13042 4.47242C6.19369 4.52478 6.24383 4.59122 6.27684 4.66643L6.8729 6.00589C6.91163 6.09274 6.92599 6.1885 6.91443 6.28289C6.90286 6.37728 6.86582 6.46674 6.80727 6.54168L6.50589 6.9328C6.44122 7.01356 6.4022 7.11182 6.39384 7.21495C6.38549 7.31807 6.40818 7.42133 6.45901 7.51145C6.62778 7.80747 7.0323 8.24279 7.48101 8.64597C7.98465 9.10139 8.54321 9.51796 8.89683 9.65994C8.99145 9.6986 9.09548 9.70803 9.19551 9.68702C9.29554 9.66601 9.38699 9.61553 9.45806 9.54207L9.80766 9.18979C9.87512 9.12327 9.95901 9.07583 10.0508 9.0523C10.1425 9.02877 10.2389 9.02999 10.3301 9.05585L11.7459 9.45768C11.824 9.48164 11.8955 9.52314 11.9551 9.57901C12.0147 9.63488 12.0608 9.70363 12.0897 9.78002C12.1187 9.85641 12.1298 9.93841 12.1222 10.0197C12.1146 10.1011 12.0885 10.1796 12.0459 10.2493Z" fill="#29A71A"/>
</svg>
